<?xml version="1.0" encoding="utf-8"?>
<!-- Generator: Adobe Illustrator 25.4.1, SVG Export Plug-In . SVG Version: 6.00 Build 0)  -->
<svg version="1.1" id="Layer_1" xmlns="http://www.w3.org/2000/svg" xmlns:xlink="http://www.w3.org/1999/xlink" x="0px" y="0px"
	 viewBox="0 0 739.4 139.2" style="enable-background:new 0 0 739.4 139.2;" xml:space="preserve">
<style type="text/css">
	.st0{fill:#0F2437;}
	.st1{fill:#FFFFFF;}
	.st2{fill:#FABF00;}
</style>
<rect class="st0" width="739.4" height="139.2"/>
<g>
	<g>
		<path class="st1" d="M259.4,105.9c-21.9,0-32.7-14.5-32.7-36.7s11.6-36.8,34-36.8c8.7,0,15.7,2.1,21.1,6.5
			c5,4.5,7.9,10.6,8.6,18.4h-8.8c-3.1,0-5.4-1.5-6.8-4.3c-2.4-5.1-7.1-7.8-14-7.8c-13.5,0-19.4,9.5-19.4,23.8s5.8,23.7,19.1,23.7
			c9.1,0,14.3-5,16-12.8h14.1C289.1,96.7,277.5,105.9,259.4,105.9L259.4,105.9z"/>
		<path class="st1" d="M346.6,77.5c0,19.1-8.4,28.7-25.2,28.7s-25.1-9.6-25.1-28.7s8.3-28.8,25.1-28.8S346.6,58.3,346.6,77.5
			L346.6,77.5z M310.3,77.5c0.1,10.8,3.8,16.2,10.9,16.2S331.8,88,332,77c0-10.8-3.6-16.1-10.6-16.1
			C314.3,60.9,310.3,66.5,310.3,77.5z"/>
		<path class="st1" d="M361.5,33.7c4.6,0,6.8,2.3,6.7,6.8v4h-13.9V33.7H361.5z M361.5,49.5c4.5,0,6.7,2.2,6.7,6.7v48.7h-13.9V49.5
			H361.5z"/>
		<path class="st1" d="M417.3,104.9c-4.6-0.3-6.9-2.5-6.9-6.9V69.5c-0.3-5.8-3.5-8.6-9.6-8.6s-9.3,2.8-9.4,8.6v35.4h-14.1V72.4
			c0-15.9,8-23.6,23.7-23.6s23.6,7.9,23.5,23.6v32.5H417.3z"/>
	</g>
	<g>
		<path class="st2" d="M472.5,33.7l25.6,71.2h-15.4L478,90.3h-27.5l-4.7,14.6H430l23.7-66.4c1-3.1,3.4-4.7,6.9-4.7L472.5,33.7
			L472.5,33.7z M454.3,78.3h19.6L464,48.1L454.3,78.3z"/>
		<path class="st2" d="M544.2,104.9c-4.6-0.3-6.9-2.5-6.9-6.9V69.5c-0.3-5.8-3.5-8.6-9.6-8.6s-9.3,2.8-9.4,8.6v35.4h-14.1V72.4
			c0-15.9,8-23.6,23.7-23.6s23.5,7.9,23.5,23.6v32.5H544.2z"/>
		<path class="st2" d="M609.7,40.7v40.2c0,16.7-8.7,24.9-25.9,24.8c-17.1-0.3-25.7-9.6-25.7-28s7.3-28.5,22.1-29
			c6.9,0,12.3,2.8,15.9,8.6V33.7h6.9C606.6,33.7,609.7,37,609.7,40.7L609.7,40.7z M572.3,77c-0.1,11.2,3.7,16.9,11.6,16.9
			s11.9-5.7,11.9-16.9c-0.3-10.6-4.2-16-11.7-16S572.8,66.4,572.3,77L572.3,77z"/>
	</g>
	<g>
		<path class="st1" d="M649.8,32.6c8.3,0,15.5,2.1,21.4,6.2c5.4,4.4,8.4,10.5,9,18.6h-9c-2.7,0-4.7-1.3-6.4-3.7
			c-2.8-5.8-7.8-8.6-14.7-8.6c-12.3,0-18.5,7.8-18.6,23.4s6.2,24,19.3,24.9c9.8,0,15.6-6.6,17.1-15.2h-8.6c-4,0-7.3-3.2-7.3-7.3
			v-4.5h28.9v38.4h-3.7c-3.5,0-6.8-2.3-7.2-5.6l-0.6-3.5c-5,6.5-10.2,10.1-20.4,10.1c-20.4,0-32.7-15.9-32.7-36.7
			S628.8,31.8,649.8,32.6L649.8,32.6z"/>
		<path class="st1" d="M739.4,77.5c0,19.1-8.4,28.7-25.2,28.7s-25.1-9.6-25.1-28.7s8.3-28.8,25.1-28.8S739.4,58.3,739.4,77.5
			L739.4,77.5z M703.2,77.5c0.1,10.8,3.8,16.2,10.9,16.2c7.1,0,10.6-5.7,10.8-16.7c0-10.8-3.6-16.1-10.6-16.1S703.2,66.5,703.2,77.5
			z"/>
	</g>
	<g>
		<path class="st2" d="M88.9,102.1h5.6c3.9,0,7.3-3.2,7.3-7.3s-3.2-7.3-7.3-7.3H81.2c-0.7-2.1-1.4-4.2-1.9-6.4H64.6
			c0.3,2.2,0.8,4.3,1.4,6.4H31.3c-3.9,0-7.3,3.2-7.3,7.3s3.2,7.3,7.3,7.3H88.9L88.9,102.1z"/>
		<path class="st2" d="M133,0c-13.9,0-26.8,4-37.7,11.1h-51c-3.9,0-7.3,3.2-7.3,7.3s3.2,7.3,7.3,7.3h34.9c-2.8,3.5-5.3,7.2-7.4,11.1
			H60c-3.9,0-7.3,3.2-7.3,7.3s3.2,7.2,7.3,7.2h28.5c3.9,0,7.3-3.2,7.3-7.3s-3-7.1-6.8-7.2c10.1-13.4,26-22.2,44.1-22.2
			c30.3,0,55,24.6,55,55s-24.6,55-55,55c-15.9,0-30.1-6.7-40.2-17.5H74.5c1.4,2.2,3,4.3,4.6,6.4H53.4c-3.9,0-7.3,3.2-7.3,7.3
			s3.2,7.3,7.3,7.3h42c10.9,7.1,23.8,11.1,37.6,11.1c38.3,0,69.4-31.1,69.4-69.4S171.3,0,133,0L133,0z"/>
		<path class="st2" d="M78.6,76.6h42.8c3.9,0,7.3-3.2,7.3-7.3s-3.2-7.3-7.3-7.3h-7.9c3-8,10.5-13.7,19.6-13.7
			c11.5,0,20.8,9.4,20.8,20.8s-9.4,20.8-20.8,20.8c-7.1,0-13.3-3.6-17.1-8.9H99.8c4.9,13.7,17.9,23.4,33.2,23.4
			c19.4,0,35.3-15.9,35.3-35.3S152.5,34,133,34c-17,0-31.2,12-34.6,28.1H78.5c0.2-2.2,0.7-4.3,1.3-6.4H64.9
			c-0.5,2.1-0.7,4.2-0.9,6.4H7.2c-3.9,0-7.3,3.2-7.3,7.3s3.2,7.3,7.3,7.3L78.6,76.6L78.6,76.6z"/>
	</g>
</g>
</svg>
