<?xml version="1.0" encoding="utf-8"?>
<!-- Generator: Adobe Illustrator 25.4.1, SVG Export Plug-In . SVG Version: 6.00 Build 0)  -->
<svg version="1.1" id="Layer_1" xmlns="http://www.w3.org/2000/svg" xmlns:xlink="http://www.w3.org/1999/xlink" x="0px" y="0px"
	 viewBox="0 0 202.4 138.8" style="enable-background:new 0 0 202.4 138.8;" xml:space="preserve">
<style type="text/css">
	.st0{fill:#FABF00;}
</style>
<g>
	<g>
		<path class="st0" d="M88.9,102.1h5.6c3.9,0,7.3-3.2,7.3-7.3s-3.2-7.3-7.3-7.3H81.2c-0.7-2.1-1.4-4.2-1.9-6.4H64.6
			c0.3,2.2,0.8,4.3,1.4,6.4H31.3c-3.9,0-7.3,3.2-7.3,7.3s3.2,7.3,7.3,7.3H88.9L88.9,102.1z"/>
		<path class="st0" d="M133,0c-13.9,0-26.8,4-37.7,11.1h-51c-3.9,0-7.3,3.2-7.3,7.3s3.2,7.3,7.3,7.3h34.9c-2.8,3.5-5.3,7.2-7.4,11.1
			H60c-3.9,0-7.3,3.2-7.3,7.3s3.2,7.2,7.3,7.2h28.5c3.9,0,7.3-3.2,7.3-7.3s-3-7.1-6.8-7.2c10.1-13.4,26-22.2,44.1-22.2
			c30.3,0,55,24.6,55,55s-24.6,55-55,55c-15.9,0-30.1-6.7-40.2-17.5H74.5c1.4,2.2,3,4.3,4.6,6.4H53.4c-3.9,0-7.3,3.2-7.3,7.3
			s3.2,7.3,7.3,7.3h42c10.9,7.1,23.8,11.1,37.6,11.1c38.3,0,69.4-31.1,69.4-69.4S171.3,0,133,0L133,0z"/>
		<path class="st0" d="M78.6,76.6h42.8c3.9,0,7.3-3.2,7.3-7.3s-3.2-7.3-7.3-7.3h-7.9c3-8,10.5-13.7,19.6-13.7
			c11.5,0,20.8,9.4,20.8,20.8s-9.4,20.8-20.8,20.8c-7.1,0-13.3-3.6-17.1-8.9H99.8c4.9,13.7,17.9,23.4,33.2,23.4
			c19.4,0,35.3-15.9,35.3-35.3S152.5,34,133,34c-17,0-31.2,12-34.6,28.1H78.5c0.2-2.2,0.7-4.3,1.3-6.4H64.9
			c-0.5,2.1-0.7,4.2-0.9,6.4H7.2c-3.9,0-7.3,3.2-7.3,7.3s3.2,7.3,7.3,7.3L78.6,76.6L78.6,76.6z"/>
	</g>
</g>
</svg>
